<svg width="24" height="24" viewBox="0 0 24 24" fill="none" xmlns="http://www.w3.org/2000/svg">
<path d="M16.5 12C16.5 10.9594 16.4438 9.95625 16.3453 9H7.65469C7.55625 9.95625 7.45781 10.9594 7.45781 12C7.45781 13.0406 7.55625 14.0437 7.65469 15H16.3453C16.4438 14.0437 16.5 13.0406 16.5 12ZM23.6203 15C23.8687 14.0391 24 13.0359 24 12C24 10.9641 23.8687 9.96094 23.6203 9H17.85C17.9484 9.96562 18 11.0109 18 12C18 13.0312 17.9484 14.0344 17.85 15H23.6203ZM23.1281 16.5H17.6578C17.1891 19.4934 16.2609 22.0022 15.0656 23.6043C18.7406 22.6364 21.7219 19.9716 23.1281 16.5ZM16.1391 16.5H7.86094C8.14687 18.2063 8.5875 19.7166 9.12656 20.9367C9.61875 22.0434 10.1672 22.8464 10.6969 23.3527C11.2219 23.851 11.6578 24 12 24C12.3422 24 12.7781 23.851 13.3031 23.3527C13.8328 22.8464 14.3812 22.0434 14.8734 20.9367C15.4125 19.7166 15.8531 18.2063 16.1391 16.5ZM0.872344 16.5C2.27766 19.9716 5.25938 22.6364 8.93438 23.6043C7.73906 22.0022 6.81094 19.4934 6.34219 16.5H0.872344ZM6.15 15C6.05156 14.0344 5.95781 13.0312 5.95781 12C5.95781 11.0109 6.05156 9.96562 6.15 9H0.378047C0.13125 9.96094 0 10.9641 0 12C0 13.0359 0.13125 14.0391 0.378047 15H6.15ZM9.12656 3.06562C8.5875 4.28437 8.14687 5.79375 7.86094 7.5H16.1391C15.8531 5.79375 15.4125 4.28437 14.8734 3.06562C14.3812 1.95469 13.8328 1.15312 13.3031 0.646873C12.7781 0.149998 12.3422 0 11.9578 0C11.6578 0 11.2219 0.149998 10.6969 0.646873C10.1672 1.15312 9.61875 1.95469 9.12656 3.06562ZM8.93438 0.393749C5.25938 1.36406 2.27766 4.02656 0.872344 7.5H6.34219C6.81094 4.50469 7.73906 1.99687 8.93438 0.393749ZM15.0656 0.393749C16.2609 1.99687 17.1891 4.50469 17.6578 7.5H23.1281C21.7219 4.02656 18.7406 1.36406 15.0656 0.393749Z" fill="black"/>
</svg>
