<svg width="24" height="25" viewBox="0 0 24 25" fill="none" xmlns="http://www.w3.org/2000/svg">
<g id="clarity:settings-line">
<path id="Vector" d="M12.0671 7.83301C9.46706 7.83301 7.40039 9.89967 7.40039 12.4997C7.40039 15.0997 9.46706 17.1663 12.0671 17.1663C14.6671 17.1663 16.7337 15.0997 16.7337 12.4997C16.7337 9.89967 14.6671 7.83301 12.0671 7.83301ZM12.0671 15.833C10.2004 15.833 8.73372 14.3663 8.73372 12.4997C8.73372 10.633 10.2004 9.16634 12.0671 9.16634C13.9337 9.16634 15.4004 10.633 15.4004 12.4997C15.4004 14.3663 13.9337 15.833 12.0671 15.833Z" fill="white"/>
<path id="Vector_2" d="M21.8673 10.2997L20.0007 9.69967L19.6007 8.69967L20.534 6.96634C20.734 6.56634 20.6673 6.03301 20.334 5.69967L18.734 4.09967C18.4007 3.76634 17.8673 3.69967 17.4673 3.89967L15.734 4.83301L14.734 4.43301L14.134 2.56634C14.0007 2.16634 13.6007 1.83301 13.134 1.83301H10.8673C10.4007 1.83301 10.0007 2.16634 9.93398 2.63301L9.33398 4.49967C8.93398 4.56634 8.60065 4.69967 8.26732 4.89967L6.53398 3.96634C6.13398 3.76634 5.60065 3.83301 5.26732 4.16634L3.66732 5.76634C3.33398 6.09967 3.26732 6.63301 3.46732 7.03301L4.33398 8.69967C4.20065 9.03301 4.06732 9.43301 3.93398 9.76634L2.06732 10.3663C1.66732 10.4997 1.33398 10.8997 1.33398 11.3663V13.633C1.33398 14.0997 1.66732 14.4997 2.13398 14.633L4.00065 15.233L4.40065 16.233L3.46732 17.9663C3.26732 18.3663 3.33398 18.8997 3.66732 19.233L5.26732 20.833C5.60065 21.1663 6.13398 21.233 6.53398 21.033L8.26732 20.0997L9.26732 20.4997L9.86732 22.433C10.0007 22.833 10.4007 23.1663 10.8673 23.1663H13.134C13.6007 23.1663 14.0007 22.833 14.134 22.433L14.734 20.4997L15.734 20.0997L17.4673 21.033C17.8673 21.233 18.4007 21.1663 18.734 20.833L20.334 19.233C20.6673 18.8997 20.734 18.3663 20.534 17.9663L19.6007 16.233L20.0007 15.233L21.934 14.633C22.334 14.4997 22.6673 14.0997 22.6673 13.633V11.3663C22.6673 10.8997 22.334 10.433 21.8673 10.2997ZM21.334 13.433L18.934 14.1663L18.8673 14.4997L18.2673 15.8997L18.0673 16.233L19.2673 18.433L17.934 19.7663L15.734 18.5663L15.4007 18.7663C14.934 19.033 14.4673 19.233 14.0007 19.3663L13.6673 19.433L12.934 21.833H11.0673L10.334 19.433L10.0007 19.3663L8.60065 18.7663L8.26732 18.5663L6.06732 19.7663L4.73398 18.433L5.93398 16.233L5.73398 15.8997C5.46732 15.433 5.26732 14.9663 5.13398 14.4997L5.06732 14.1663L2.66732 13.433V11.5663L4.93398 10.8997L5.06732 10.5663C5.20065 10.033 5.40065 9.56634 5.66732 9.09967L5.86732 8.76634L4.73398 6.56634L6.06732 5.23301L8.20065 6.43301L8.53398 6.23301C9.00065 5.96634 9.46732 5.76634 10.0007 5.63301L10.334 5.49967L11.0673 3.16634H12.934L13.6673 5.49967L14.0007 5.63301C14.4673 5.76634 14.934 5.96634 15.4007 6.23301L15.734 6.43301L17.934 5.23301L19.2673 6.56634L18.0673 8.76634L18.2673 9.09967C18.534 9.56634 18.734 10.033 18.8673 10.4997L18.934 10.833L21.334 11.5663V13.433Z" fill="white"/>
</g>
</svg>
