<svg width="21" height="21" viewBox="0 0 21 21" fill="none" xmlns="http://www.w3.org/2000/svg">
<g id="Group">
<path id="Vector" d="M4.44922 1.5V13.5" stroke="#505050" stroke-width="2" stroke-linecap="round" stroke-linejoin="round"/>
<path id="Vector_2" d="M16.4492 7.5C18.1061 7.5 19.4492 6.15685 19.4492 4.5C19.4492 2.84315 18.1061 1.5 16.4492 1.5C14.7924 1.5 13.4492 2.84315 13.4492 4.5C13.4492 6.15685 14.7924 7.5 16.4492 7.5Z" stroke="#505050" stroke-width="2" stroke-linecap="round" stroke-linejoin="round"/>
<path id="Vector_3" d="M4.44922 19.5C6.10607 19.5 7.44922 18.1569 7.44922 16.5C7.44922 14.8431 6.10607 13.5 4.44922 13.5C2.79236 13.5 1.44922 14.8431 1.44922 16.5C1.44922 18.1569 2.79236 19.5 4.44922 19.5Z" stroke="#505050" stroke-width="2" stroke-linecap="round" stroke-linejoin="round"/>
<path id="Vector_4" d="M16.4492 7.5C16.4492 9.88695 15.501 12.1761 13.8132 13.864C12.1254 15.5518 9.83617 16.5 7.44922 16.5" stroke="#505050" stroke-width="2" stroke-linecap="round" stroke-linejoin="round"/>
</g>
</svg>
