<svg width="25" height="25" viewBox="0 0 25 25" fill="none" xmlns="http://www.w3.org/2000/svg">
<g id="octicon:zap-16">
<path id="Vector" fill-rule="evenodd" clip-rule="evenodd" d="M16.3252 2.75026C16.3196 2.75046 16.3143 2.75258 16.3102 2.75626L5.41269 13.3568C5.35916 13.4089 5.32245 13.4759 5.30728 13.5492C5.2921 13.6224 5.29916 13.6984 5.32753 13.7676C5.35591 13.8368 5.40431 13.8959 5.46653 13.9373C5.52874 13.9788 5.60193 14.0007 5.67669 14.0003H10.6087C10.7933 14.0003 10.975 14.0457 11.1379 14.1326C11.3007 14.2195 11.4397 14.345 11.5426 14.4983C11.6454 14.6516 11.709 14.8278 11.7277 15.0114C11.7464 15.195 11.7196 15.3804 11.6497 15.5513L9.08019 21.8333L19.5532 11.6438C19.6066 11.5917 19.6433 11.5248 19.6585 11.4517C19.6737 11.3787 19.6668 11.3027 19.6386 11.2336C19.6104 11.1645 19.5623 11.1054 19.5003 11.0638C19.4383 11.0222 19.3653 11.0001 19.2907 11.0003H14.3587C14.1705 11.0003 13.9853 10.9531 13.8201 10.863C13.6548 10.7729 13.5148 10.6428 13.4129 10.4846C13.311 10.3264 13.2504 10.1452 13.2366 9.95746C13.2228 9.76977 13.2564 9.58163 13.3342 9.41026L16.3462 2.78326L16.3507 2.77426C16.3498 2.76933 16.3478 2.76469 16.3447 2.76076C16.3424 2.75715 16.3393 2.75408 16.3357 2.75176L16.3237 2.75026H16.3252ZM14.7397 1.14526C15.1196 0.776431 15.6164 0.551765 16.1443 0.510012C16.6722 0.46826 17.1981 0.612039 17.6313 0.916549C18.0645 1.22106 18.3778 1.66721 18.5173 2.17804C18.6568 2.68887 18.6136 3.23236 18.3952 3.71476L16.1062 8.75026H19.2907C21.6457 8.75026 22.8097 11.6138 21.1207 13.2563L10.1107 23.9693C9.76089 24.3095 9.2922 24.5 8.80419 24.5003H8.35119C8.04359 24.5002 7.74071 24.4246 7.46926 24.2799C7.19782 24.1352 6.96614 23.9259 6.79466 23.6705C6.62318 23.4152 6.51716 23.1215 6.48595 22.8155C6.45474 22.5095 6.49929 22.2005 6.61569 21.9158L8.93319 16.2503H5.67669C3.32169 16.2503 2.15769 13.3868 3.84669 11.7443L14.7382 1.14376L14.7397 1.14526Z" fill="#505050"/>
</g>
</svg>
