<svg width="25" height="25" viewBox="0 0 25 25" fill="none" xmlns="http://www.w3.org/2000/svg">
<g id="fa6-solid:rotate-right">
<path id="Vector" d="M22.4549 2.00488C23.1051 2.00488 23.729 2.50973 23.729 3.27238V10.1114C23.729 10.6079 23.3266 11.01 22.8304 11.01H16.0007C15.2376 11.01 14.7323 10.3857 14.7323 9.73504C14.7323 9.42407 14.8476 9.10691 15.1054 8.8491L17.2204 6.73316C15.8976 5.64848 14.2274 5.01566 12.472 5.01566C8.34273 5.01566 4.98133 8.37613 4.98133 12.5063C4.98133 16.6364 8.34086 19.995 12.4705 19.995C15.899 19.995 16.663 18.1993 17.8659 18.1993C18.7321 18.1993 19.3645 18.9043 19.3645 19.6974C19.3645 21.3399 15.5399 22.9979 12.4738 22.9979C6.68945 22.9979 1.97852 18.2869 1.97852 12.5025C1.97852 6.71816 6.69086 2.02035 12.4752 2.02035C15.0346 2.02035 17.4534 2.97613 19.3377 4.61066L21.569 2.37801C21.8268 2.1202 22.1455 2.00488 22.4549 2.00488Z" fill="#505050"/>
</g>
</svg>
