<svg width="99" height="19" viewBox="0 0 99 19" fill="none" xmlns="http://www.w3.org/2000/svg">
<path d="M7.95572 1.92C9.42772 1.92 10.7237 2.152 11.8437 2.616C12.9797 3.064 13.9637 3.728 14.7957 4.608L12.8037 7.272C12.1157 6.552 11.3717 6.016 10.5717 5.664C9.78772 5.296 8.89172 5.112 7.88372 5.112C7.29172 5.112 6.81172 5.176 6.44372 5.304C6.07572 5.432 5.81172 5.608 5.65172 5.832C5.49172 6.056 5.41172 6.312 5.41172 6.6C5.41172 6.936 5.56372 7.224 5.86772 7.464C6.18772 7.688 6.69972 7.88 7.40372 8.04L10.0677 8.64C11.6517 9.008 12.8117 9.544 13.5477 10.248C14.2837 10.952 14.6517 11.888 14.6517 13.056C14.6517 14.176 14.3637 15.128 13.7877 15.912C13.2117 16.68 12.4197 17.264 11.4117 17.664C10.4037 18.048 9.25172 18.24 7.95572 18.24C6.89972 18.24 5.89172 18.128 4.93172 17.904C3.97172 17.664 3.10772 17.328 2.33972 16.896C1.57172 16.464 0.923719 15.968 0.395719 15.408L2.38772 12.648C2.78772 13.112 3.27572 13.528 3.85172 13.896C4.44372 14.248 5.08372 14.528 5.77172 14.736C6.47572 14.944 7.18772 15.048 7.90772 15.048C8.46772 15.048 8.93172 14.992 9.29972 14.88C9.68372 14.768 9.96372 14.6 10.1397 14.376C10.3157 14.152 10.4037 13.888 10.4037 13.584C10.4037 13.248 10.2837 12.968 10.0437 12.744C9.80372 12.504 9.34772 12.304 8.67572 12.144L5.74772 11.496C4.85172 11.288 4.05172 11.016 3.34772 10.68C2.65972 10.328 2.11572 9.864 1.71572 9.288C1.31572 8.696 1.11572 7.96 1.11572 7.08C1.11572 6.088 1.38772 5.208 1.93172 4.44C2.47572 3.656 3.25972 3.04 4.28372 2.592C5.30772 2.144 6.53172 1.92 7.95572 1.92ZM22.6325 5.76C23.8485 5.76 24.8565 5.936 25.6565 6.288C26.4725 6.624 27.1045 7.08 27.5525 7.656C28.0165 8.216 28.3045 8.824 28.4165 9.48L24.6485 10.728C24.5365 10.04 24.3285 9.528 24.0245 9.192C23.7365 8.84 23.3125 8.664 22.7525 8.664C22.2405 8.664 21.8085 8.784 21.4565 9.024C21.1205 9.248 20.8645 9.616 20.6885 10.128C20.5125 10.624 20.4245 11.264 20.4245 12.048C20.4245 12.832 20.5205 13.472 20.7125 13.968C20.9045 14.448 21.1765 14.8 21.5285 15.024C21.8805 15.232 22.2965 15.336 22.7765 15.336C23.1765 15.336 23.5045 15.264 23.7605 15.12C24.0325 14.96 24.2565 14.736 24.4325 14.448C24.6085 14.16 24.7205 13.808 24.7685 13.392L28.4405 14.568C28.3285 15.272 28.0245 15.904 27.5285 16.464C27.0485 17.008 26.4085 17.44 25.6085 17.76C24.8085 18.08 23.8725 18.24 22.8005 18.24C21.4885 18.24 20.3445 18 19.3685 17.52C18.3925 17.024 17.6405 16.312 17.1125 15.384C16.5845 14.44 16.3205 13.312 16.3205 12C16.3205 10.688 16.5845 9.568 17.1125 8.64C17.6405 7.696 18.3765 6.984 19.3205 6.504C20.2805 6.008 21.3845 5.76 22.6325 5.76ZM30.5617 18V0.912H34.6417V8.184C34.9937 7.384 35.4977 6.784 36.1537 6.384C36.8097 5.968 37.5697 5.76 38.4337 5.76C39.2657 5.76 39.9857 5.92 40.5937 6.24C41.2177 6.56 41.7057 7.032 42.0577 7.656C42.4097 8.28 42.5857 9.064 42.5857 10.008V18H38.5057V11.136C38.5057 10.272 38.3457 9.68 38.0257 9.36C37.7217 9.024 37.3137 8.856 36.8017 8.856C36.4177 8.856 36.0577 8.952 35.7217 9.144C35.3857 9.336 35.1217 9.64 34.9297 10.056C34.7377 10.472 34.6417 11.016 34.6417 11.688V18H30.5617ZM51.1565 5.76C52.4205 5.76 53.5245 6.008 54.4685 6.504C55.4285 6.984 56.1725 7.696 56.7005 8.64C57.2445 9.568 57.5165 10.688 57.5165 12C57.5165 13.312 57.2445 14.44 56.7005 15.384C56.1725 16.312 55.4285 17.024 54.4685 17.52C53.5245 18 52.4205 18.24 51.1565 18.24C49.9245 18.24 48.8285 18 47.8685 17.52C46.9085 17.024 46.1565 16.312 45.6125 15.384C45.0845 14.44 44.8205 13.312 44.8205 12C44.8205 10.688 45.0845 9.568 45.6125 8.64C46.1565 7.696 46.9085 6.984 47.8685 6.504C48.8285 6.008 49.9245 5.76 51.1565 5.76ZM51.1565 8.664C50.6925 8.664 50.2925 8.776 49.9565 9C49.6205 9.224 49.3645 9.584 49.1885 10.08C49.0125 10.576 48.9245 11.216 48.9245 12C48.9245 12.784 49.0125 13.424 49.1885 13.92C49.3645 14.4 49.6205 14.76 49.9565 15C50.2925 15.224 50.6925 15.336 51.1565 15.336C51.6365 15.336 52.0445 15.224 52.3805 15C52.7165 14.76 52.9725 14.4 53.1485 13.92C53.3245 13.424 53.4125 12.784 53.4125 12C53.4125 11.216 53.3245 10.576 53.1485 10.08C52.9725 9.584 52.7165 9.224 52.3805 9C52.0445 8.776 51.6365 8.664 51.1565 8.664ZM63.8437 0.912V13.92C63.8437 14.448 63.9317 14.824 64.1077 15.048C64.2837 15.272 64.5797 15.384 64.9957 15.384C65.2357 15.384 65.4357 15.368 65.5957 15.336C65.7557 15.304 65.9477 15.256 66.1717 15.192L65.9077 17.64C65.6197 17.816 65.2437 17.96 64.7797 18.072C64.3157 18.184 63.8597 18.24 63.4117 18.24C62.1317 18.24 61.2037 17.944 60.6277 17.352C60.0517 16.76 59.7637 15.792 59.7637 14.448V0.912H63.8437Z" fill="#F5983B"/>
<path d="M82.3512 18H78.1032L76.9992 14.424H71.5752L70.4472 18H66.2952L71.8632 2.16H76.8072L82.3512 18ZM72.3432 11.616H76.2312L74.2872 5.208L72.3432 11.616ZM91.7534 2.16C93.6414 2.16 95.1054 2.608 96.1454 3.504C97.2014 4.384 97.7294 5.56 97.7294 7.032C97.7294 8.648 97.2094 9.88 96.1694 10.728C95.1294 11.576 93.6654 12 91.7774 12L91.3934 12.216H88.2494V18H84.1934V2.16H91.7534ZM91.1774 9.288C91.9774 9.288 92.5774 9.128 92.9774 8.808C93.3774 8.488 93.5774 7.976 93.5774 7.272C93.5774 6.584 93.3774 6.08 92.9774 5.76C92.5774 5.44 91.9774 5.28 91.1774 5.28H88.2494V9.288H91.1774ZM93.6014 10.152L98.6654 18H94.1054L90.0494 11.064L93.6014 10.152Z" fill="#242426"/>
</svg>
