<svg width="149" height="27" viewBox="0 0 149 27" fill="none" xmlns="http://www.w3.org/2000/svg">
<path d="M12.1836 1.88C14.3916 1.88 16.3356 2.228 18.0156 2.924C19.7196 3.596 21.1956 4.592 22.4436 5.912L19.4556 9.908C18.4236 8.828 17.3076 8.024 16.1076 7.496C14.9316 6.944 13.5876 6.668 12.0756 6.668C11.1876 6.668 10.4676 6.764 9.91558 6.956C9.36358 7.148 8.96758 7.412 8.72758 7.748C8.48758 8.084 8.36758 8.468 8.36758 8.9C8.36758 9.404 8.59558 9.836 9.05158 10.196C9.53158 10.532 10.2996 10.82 11.3556 11.06L15.3516 11.96C17.7276 12.512 19.4676 13.316 20.5716 14.372C21.6756 15.428 22.2276 16.832 22.2276 18.584C22.2276 20.264 21.7956 21.692 20.9316 22.868C20.0676 24.02 18.8796 24.896 17.3676 25.496C15.8556 26.072 14.1276 26.36 12.1836 26.36C10.5996 26.36 9.08758 26.192 7.64758 25.856C6.20758 25.496 4.91158 24.992 3.75958 24.344C2.60758 23.696 1.63558 22.952 0.843578 22.112L3.83158 17.972C4.43158 18.668 5.16358 19.292 6.02758 19.844C6.91558 20.372 7.87558 20.792 8.90758 21.104C9.96358 21.416 11.0316 21.572 12.1116 21.572C12.9516 21.572 13.6476 21.488 14.1996 21.32C14.7756 21.152 15.1956 20.9 15.4596 20.564C15.7236 20.228 15.8556 19.832 15.8556 19.376C15.8556 18.872 15.6756 18.452 15.3156 18.116C14.9556 17.756 14.2716 17.456 13.2636 17.216L8.87158 16.244C7.52758 15.932 6.32758 15.524 5.27158 15.02C4.23958 14.492 3.42358 13.796 2.82358 12.932C2.22358 12.044 1.92358 10.94 1.92358 9.62C1.92358 8.132 2.33158 6.812 3.14758 5.66C3.96358 4.484 5.13958 3.56 6.67558 2.888C8.21158 2.216 10.0476 1.88 12.1836 1.88ZM34.1987 7.64C36.0227 7.64 37.5347 7.904 38.7347 8.432C39.9587 8.936 40.9067 9.62 41.5787 10.484C42.2747 11.324 42.7067 12.236 42.8747 13.22L37.2227 15.092C37.0547 14.06 36.7427 13.292 36.2867 12.788C35.8547 12.26 35.2187 11.996 34.3787 11.996C33.6107 11.996 32.9627 12.176 32.4347 12.536C31.9307 12.872 31.5467 13.424 31.2827 14.192C31.0187 14.936 30.8867 15.896 30.8867 17.072C30.8867 18.248 31.0307 19.208 31.3187 19.952C31.6067 20.672 32.0147 21.2 32.5427 21.536C33.0707 21.848 33.6947 22.004 34.4147 22.004C35.0147 22.004 35.5067 21.896 35.8907 21.68C36.2987 21.44 36.6347 21.104 36.8987 20.672C37.1627 20.24 37.3307 19.712 37.4027 19.088L42.9107 20.852C42.7427 21.908 42.2867 22.856 41.5427 23.696C40.8227 24.512 39.8627 25.16 38.6627 25.64C37.4627 26.12 36.0587 26.36 34.4507 26.36C32.4827 26.36 30.7667 26 29.3027 25.28C27.8387 24.536 26.7107 23.468 25.9187 22.076C25.1267 20.66 24.7307 18.968 24.7307 17C24.7307 15.032 25.1267 13.352 25.9187 11.96C26.7107 10.544 27.8147 9.476 29.2307 8.756C30.6707 8.012 32.3267 7.64 34.1987 7.64ZM46.0925 26V0.368H52.2125V11.276C52.7405 10.076 53.4965 9.176 54.4805 8.576C55.4645 7.952 56.6045 7.64 57.9005 7.64C59.1485 7.64 60.2285 7.88 61.1405 8.36C62.0765 8.84 62.8085 9.548 63.3365 10.484C63.8645 11.42 64.1285 12.596 64.1285 14.012V26H58.0085V15.704C58.0085 14.408 57.7685 13.52 57.2885 13.04C56.8325 12.536 56.2205 12.284 55.4525 12.284C54.8765 12.284 54.3365 12.428 53.8325 12.716C53.3285 13.004 52.9325 13.46 52.6445 14.084C52.3565 14.708 52.2125 15.524 52.2125 16.532V26H46.0925ZM76.9847 7.64C78.8807 7.64 80.5367 8.012 81.9527 8.756C83.3927 9.476 84.5087 10.544 85.3007 11.96C86.1167 13.352 86.5247 15.032 86.5247 17C86.5247 18.968 86.1167 20.66 85.3007 22.076C84.5087 23.468 83.3927 24.536 81.9527 25.28C80.5367 26 78.8807 26.36 76.9847 26.36C75.1367 26.36 73.4927 26 72.0527 25.28C70.6127 24.536 69.4847 23.468 68.6687 22.076C67.8767 20.66 67.4807 18.968 67.4807 17C67.4807 15.032 67.8767 13.352 68.6687 11.96C69.4847 10.544 70.6127 9.476 72.0527 8.756C73.4927 8.012 75.1367 7.64 76.9847 7.64ZM76.9847 11.996C76.2887 11.996 75.6887 12.164 75.1847 12.5C74.6807 12.836 74.2967 13.376 74.0327 14.12C73.7687 14.864 73.6367 15.824 73.6367 17C73.6367 18.176 73.7687 19.136 74.0327 19.88C74.2967 20.6 74.6807 21.14 75.1847 21.5C75.6887 21.836 76.2887 22.004 76.9847 22.004C77.7047 22.004 78.3167 21.836 78.8207 21.5C79.3247 21.14 79.7087 20.6 79.9727 19.88C80.2367 19.136 80.3687 18.176 80.3687 17C80.3687 15.824 80.2367 14.864 79.9727 14.12C79.7087 13.376 79.3247 12.836 78.8207 12.5C78.3167 12.164 77.7047 11.996 76.9847 11.996ZM96.0155 0.368V19.88C96.0155 20.672 96.1475 21.236 96.4115 21.572C96.6755 21.908 97.1195 22.076 97.7435 22.076C98.1035 22.076 98.4035 22.052 98.6435 22.004C98.8835 21.956 99.1715 21.884 99.5075 21.788L99.1115 25.46C98.6795 25.724 98.1155 25.94 97.4195 26.108C96.7235 26.276 96.0395 26.36 95.3675 26.36C93.4475 26.36 92.0555 25.916 91.1915 25.028C90.3275 24.14 89.8955 22.688 89.8955 20.672V0.368H96.0155ZM123.777 26H117.405L115.749 20.636H107.613L105.921 26H99.6928L108.045 2.24H115.461L123.777 26ZM108.765 16.424H114.597L111.681 6.812L108.765 16.424ZM137.88 2.24C140.712 2.24 142.908 2.912 144.468 4.256C146.052 5.576 146.844 7.34 146.844 9.548C146.844 11.972 146.064 13.82 144.504 15.092C142.944 16.364 140.748 17 137.916 17L137.34 17.324H132.624V26H126.54V2.24H137.88ZM137.016 12.932C138.216 12.932 139.116 12.692 139.716 12.212C140.316 11.732 140.616 10.964 140.616 9.908C140.616 8.876 140.316 8.12 139.716 7.64C139.116 7.16 138.216 6.92 137.016 6.92H132.624V12.932H137.016ZM140.652 14.228L148.248 26H141.408L135.324 15.596L140.652 14.228Z" fill="white"/>
</svg>
